<svg width="33" height="33" viewBox="0 0 33 33" fill="none" xmlns="http://www.w3.org/2000/svg">
<rect x="0.481689" y="0.0106201" width="32" height="32" rx="4" fill="#F4894A"/>
<path fill-rule="evenodd" clip-rule="evenodd" d="M11.4117 7.32108C13.0733 7.11613 14.7653 7.01062 16.4817 7.01062C18.198 7.01062 19.8901 7.11613 21.5516 7.32108C22.6759 7.45975 23.4817 8.42436 23.4817 9.52723V24.2606C23.4817 24.5184 23.3493 24.7581 23.1311 24.8954C22.9129 25.0327 22.6395 25.0483 22.4071 24.9368L19.6067 23.5925L16.8062 24.9368C16.6011 25.0352 16.3623 25.0352 16.1571 24.9368L13.3567 23.5925L10.5562 24.9368C10.3238 25.0483 10.0504 25.0327 9.83226 24.8954C9.61408 24.7581 9.48169 24.5184 9.48169 24.2606V9.52723C9.48169 8.42436 10.2875 7.45975 11.4117 7.32108ZM20.262 13.291C20.5549 12.9981 20.5549 12.5232 20.262 12.2303C19.9691 11.9374 19.4943 11.9374 19.2014 12.2303L12.7014 18.7303C12.4085 19.0232 12.4085 19.4981 12.7014 19.791C12.9943 20.0838 13.4691 20.0838 13.762 19.791L20.262 13.291ZM15.4817 14.0106C15.4817 14.5629 15.034 15.0106 14.4817 15.0106C13.9294 15.0106 13.4817 14.5629 13.4817 14.0106C13.4817 13.4583 13.9294 13.0106 14.4817 13.0106C15.034 13.0106 15.4817 13.4583 15.4817 14.0106ZM18.4817 19.0106C19.034 19.0106 19.4817 18.5629 19.4817 18.0106C19.4817 17.4583 19.034 17.0106 18.4817 17.0106C17.9294 17.0106 17.4817 17.4583 17.4817 18.0106C17.4817 18.5629 17.9294 19.0106 18.4817 19.0106Z" fill="#F8FAFC"/>
</svg>
