<svg width="23" height="18" viewBox="0 0 23 18" fill="none" xmlns="http://www.w3.org/2000/svg">
<path fill-rule="evenodd" clip-rule="evenodd" d="M11.5002 2.39998C10.0421 2.39998 8.59971 2.46578 7.17566 2.59455C6.79035 2.62939 6.48389 2.92715 6.43797 3.31119C6.28906 4.5564 6.18841 5.81659 6.13796 7.08986L8.16373 5.06365C8.51516 4.71214 9.08501 4.71208 9.43652 5.06351C9.78803 5.41494 9.78809 5.98479 9.43666 6.3363L5.83757 9.93618C5.48614 10.2877 4.91631 10.2878 4.5648 9.93634L0.96389 6.33646C0.612368 5.98504 0.612287 5.41519 0.963709 5.06367C1.31513 4.71215 1.88498 4.71207 2.2365 5.06349L4.33396 7.16035C4.3843 5.79119 4.49062 4.43614 4.6507 3.09746C4.79758 1.86928 5.78177 0.913242 7.01356 0.801861C8.49144 0.66823 9.98796 0.599976 11.5002 0.599976C13.0124 0.599976 14.5089 0.66823 15.9868 0.801861C17.2186 0.913241 18.2028 1.86928 18.3497 3.09746C18.4262 3.73754 18.4905 4.38138 18.5422 5.02871C18.5818 5.52419 18.2122 5.95794 17.7167 5.99753C17.2212 6.03711 16.7875 5.66754 16.7479 5.17206C16.6981 4.54826 16.6362 3.92789 16.5624 3.31119C16.5165 2.92715 16.21 2.62939 15.8247 2.59455C14.4007 2.46578 12.9582 2.39998 11.5002 2.39998ZM17.1628 8.06398C17.5143 7.7125 18.0841 7.71243 18.4356 8.06382L22.0365 11.6635C22.388 12.0149 22.3881 12.5847 22.0367 12.9363C21.6853 13.2878 21.1154 13.2879 20.7639 12.9365L18.6664 10.8397C18.6161 12.2088 18.5098 13.5638 18.3497 14.9025C18.2028 16.1307 17.2186 17.0867 15.9868 17.1981C14.5089 17.3317 13.0124 17.4 11.5002 17.4C9.98796 17.4 8.49144 17.3317 7.01356 17.1981C5.78177 17.0867 4.79758 16.1307 4.6507 14.9025C4.5741 14.2619 4.50981 13.6176 4.45807 12.9697C4.4185 12.4742 4.78808 12.0405 5.28356 12.0009C5.77904 11.9614 6.21278 12.3309 6.25235 12.8264C6.30221 13.4507 6.36416 14.0716 6.43797 14.6888C6.48389 15.0728 6.79035 15.3706 7.17566 15.4054C8.59971 15.5342 10.0421 15.6 11.5002 15.6C12.9582 15.6 14.4007 15.5342 15.8247 15.4054C16.21 15.3706 16.5165 15.0728 16.5624 14.6888C16.7113 13.4436 16.812 12.1834 16.8624 10.9102L14.8366 12.9363C14.4852 13.2878 13.9153 13.2879 13.5638 12.9364C13.2123 12.585 13.2123 12.0151 13.5637 11.6636L17.1628 8.06398Z" fill="#F4894A"/>
</svg>
