<svg width="20" height="20" viewBox="0 0 20 20" fill="none" xmlns="http://www.w3.org/2000/svg">
<path d="M10.75 4C10.75 3.58579 10.4142 3.25 10 3.25C9.58579 3.25 9.25 3.58579 9.25 4H10.75ZM10 10H9.25C9.25 10.4142 9.58579 10.75 10 10.75V10ZM14.5 10.75C14.9142 10.75 15.25 10.4142 15.25 10C15.25 9.58579 14.9142 9.25 14.5 9.25V10.75ZM18.25 10C18.25 14.5563 14.5563 18.25 10 18.25V19.75C15.3848 19.75 19.75 15.3848 19.75 10H18.25ZM10 18.25C5.44365 18.25 1.75 14.5563 1.75 10H0.25C0.25 15.3848 4.61522 19.75 10 19.75V18.25ZM1.75 10C1.75 5.44365 5.44365 1.75 10 1.75V0.25C4.61522 0.25 0.25 4.61522 0.25 10H1.75ZM10 1.75C14.5563 1.75 18.25 5.44365 18.25 10H19.75C19.75 4.61522 15.3848 0.25 10 0.25V1.75ZM9.25 4V10H10.75V4H9.25ZM14.5 9.25H10V10.75H14.5V9.25Z" fill="#0F172A"/>
</svg>
