<svg width="25" height="26" viewBox="0 0 25 26" fill="none" xmlns="http://www.w3.org/2000/svg">
<path d="M1.25 13L3.75 10.5M3.75 10.5L12.5 1.75L21.25 10.5M3.75 10.5V23C3.75 23.3315 3.8817 23.6495 4.11612 23.8839C4.35054 24.1183 4.66848 24.25 5 24.25H8.75M21.25 10.5L23.75 13M21.25 10.5V23C21.25 23.3315 21.1183 23.6495 20.8839 23.8839C20.6495 24.1183 20.3315 24.25 20 24.25H16.25M8.75 24.25C9.08152 24.25 9.39946 24.1183 9.63388 23.8839C9.8683 23.6495 10 23.3315 10 23V18C10 17.6685 10.1317 17.3505 10.3661 17.1161C10.6005 16.8817 10.9185 16.75 11.25 16.75H13.75C14.0815 16.75 14.3995 16.8817 14.6339 17.1161C14.8683 17.3505 15 17.6685 15 18V23C15 23.3315 15.1317 23.6495 15.3661 23.8839C15.6005 24.1183 15.9185 24.25 16.25 24.25M8.75 24.25H16.25" stroke="#4B5563" stroke-width="2" stroke-linecap="round" stroke-linejoin="round"/>
</svg>
