<svg width="38" height="39" viewBox="0 0 38 39" fill="none" xmlns="http://www.w3.org/2000/svg">
<path d="M8.32062 7.33879C8.19944 7.47343 8.03888 7.54076 7.88134 7.54076C7.72078 7.54076 7.56324 7.47343 7.44206 7.33879C7.32088 7.20414 7.26029 7.02574 7.26029 6.8507C7.26029 6.6723 7.32088 6.49726 7.44206 6.36261C7.66322 6.11688 7.72684 5.89472 7.7026 5.68265C7.67836 5.45039 7.56021 5.2013 7.42994 4.93537C7.20576 4.46748 6.9634 3.96929 6.88766 3.36339C6.80889 2.75075 6.89978 2.04723 7.34512 1.19223L7.34815 1.17877C7.43297 1.02056 7.5693 0.912842 7.71775 0.865717C7.86922 0.818591 8.03888 0.838787 8.18732 0.933039C8.33577 1.02729 8.43574 1.18213 8.47816 1.35044C8.52057 1.51875 8.50239 1.70725 8.41757 1.87219C8.14491 2.40067 8.09341 2.83827 8.14491 3.22201C8.19944 3.60911 8.36607 3.95583 8.5236 4.27898C8.75687 4.76033 8.97197 5.20803 8.99923 5.70285C9.02953 6.21113 8.86291 6.73625 8.32062 7.33879ZM4.81547 15.2357H33.4475C33.5626 15.2357 33.6747 15.2627 33.7777 15.3098C33.8777 15.3569 33.9655 15.4209 34.0443 15.5017C34.0503 15.505 34.0564 15.5118 34.0625 15.5185C34.22 15.6935 34.3169 15.9325 34.3169 16.1985V18.3427H37.1526C37.3252 18.3427 37.4797 18.4201 37.5918 18.5446C37.7039 18.6692 37.7736 18.8442 37.7736 19.0327C37.7736 19.2246 37.7039 19.3963 37.5918 19.5208L37.5828 19.5309C37.4707 19.6487 37.3192 19.7228 37.1526 19.7228H34.3169V33.8942C34.3169 34.5068 34.2048 35.0926 34.0049 35.6278C33.7959 36.1832 33.4929 36.6847 33.1172 37.1021C32.7416 37.5195 32.2902 37.8595 31.7903 38.0884C31.3086 38.3106 30.7815 38.4351 30.2301 38.4351H8.03888C7.4875 38.4351 6.96037 38.3106 6.47867 38.0884C5.9788 37.8561 5.52741 37.5195 5.15174 37.0988C4.77608 36.6814 4.4701 36.1798 4.26107 35.6244C4.06112 35.0892 3.94903 34.5035 3.94903 33.8908V19.7295H1.17096C0.998273 19.7295 0.843768 19.6521 0.731676 19.5276C0.616554 19.3996 0.546875 19.228 0.546875 19.0361C0.546875 18.8442 0.616554 18.6726 0.728646 18.548C0.840738 18.4235 0.998273 18.346 1.16793 18.346H3.94903V16.2018C3.94903 16.0739 3.97326 15.9494 4.01567 15.8349C4.06112 15.7171 4.12474 15.6094 4.20351 15.5219C4.36104 15.3468 4.57917 15.2357 4.81547 15.2357ZM33.0688 16.6226H5.19719V33.8976C5.19719 34.3251 5.27293 34.729 5.41228 35.1027C5.5577 35.4898 5.76977 35.8365 6.03334 36.1293C6.2969 36.4222 6.60894 36.6578 6.95734 36.8194C7.29059 36.9742 7.65716 37.0584 8.04191 37.0584H30.2331C30.6149 37.0584 30.9814 36.9742 31.3147 36.8194C31.66 36.6578 31.9751 36.4222 32.2387 36.1327C32.5022 35.8398 32.7143 35.4931 32.8567 35.106C32.9961 34.7357 33.0718 34.3284 33.0718 33.9043V16.6226H33.0688ZM6.62409 18.9688C6.62409 18.7769 6.69377 18.6052 6.80586 18.4807C6.91795 18.3561 7.07549 18.2787 7.24514 18.2787C7.41783 18.2787 7.57233 18.3561 7.68442 18.4807C7.79652 18.6052 7.86619 18.7803 7.86619 18.9688V28.0876C7.86619 28.2795 7.79652 28.4512 7.68442 28.5757C7.57233 28.7003 7.4148 28.7777 7.24514 28.7777C7.07246 28.7777 6.91795 28.7003 6.80586 28.5757L6.79677 28.5656C6.69074 28.4411 6.62409 28.2728 6.62409 28.0876V18.9688ZM12.7558 9.4056C11.6834 9.57727 10.72 9.79607 9.86568 10.0553C9.00832 10.3178 8.25397 10.6241 7.60566 10.9742C7.15123 11.2199 6.7483 11.4859 6.39991 11.772C6.15452 11.9706 5.93639 12.1827 5.7425 12.4015H32.5325C32.3538 12.1928 32.1478 11.9942 31.9176 11.8056C31.5813 11.533 31.1905 11.2805 30.7482 11.0516C30.118 10.7218 29.3849 10.439 28.5639 10.1899C27.7368 9.94081 26.8219 9.73548 25.8343 9.5638C25.3859 9.48638 24.9315 9.41569 24.474 9.35174H24.468C24.0166 9.28778 23.5621 9.23392 23.1016 9.18343C22.6502 9.1363 22.1928 9.09254 21.7262 9.05888C21.2658 9.02522 20.8083 8.99829 20.3539 8.9781C20.1812 8.97136 20.0297 8.88721 19.9207 8.7593C19.8116 8.63138 19.748 8.45635 19.754 8.26448V8.26111C19.7571 8.15003 19.7843 8.04568 19.8298 7.95479C19.8752 7.86054 19.9419 7.78312 20.0206 7.71916C20.1176 7.63838 20.2085 7.54749 20.2872 7.44314C20.366 7.34216 20.4326 7.22771 20.4872 7.10989C20.5417 6.99208 20.5841 6.86753 20.6114 6.72952C20.6387 6.59824 20.6538 6.4636 20.6538 6.32222C20.6538 6.08659 20.6114 5.86442 20.5356 5.66246C20.4569 5.45375 20.3418 5.26189 20.1994 5.10368C20.057 4.94547 19.8843 4.81419 19.6965 4.73004C19.5147 4.64588 19.3147 4.59876 19.1027 4.59876C18.8906 4.59876 18.6907 4.64588 18.5089 4.73004C18.318 4.81756 18.1484 4.94547 18.006 5.10704C17.8636 5.26525 17.7455 5.45712 17.6697 5.66582C17.594 5.86779 17.5516 6.08995 17.5516 6.32558C17.5516 6.4636 17.5667 6.59824 17.591 6.72615C17.6182 6.85743 17.6606 6.98535 17.7121 7.09979C17.7667 7.21761 17.8333 7.33206 17.9091 7.43304C17.9878 7.53739 18.0757 7.63164 18.1726 7.70906C18.3089 7.82351 18.3938 7.98845 18.415 8.16349C18.4362 8.33853 18.3998 8.52367 18.2968 8.67514C18.2362 8.76266 18.1635 8.82999 18.0817 8.87711C18.003 8.92087 17.9151 8.9478 17.8273 8.95117H17.8091H17.797C17.3819 8.96127 16.9578 8.9781 16.5306 9.00166C16.1095 9.02522 15.6824 9.05552 15.2431 9.09591C14.8189 9.13294 14.3978 9.1767 13.9858 9.23056C13.5708 9.28105 13.1618 9.33827 12.7558 9.4056ZM7.06337 9.72874C7.77228 9.34837 8.58722 9.01512 9.51122 8.73237C10.4292 8.44961 11.4531 8.21735 12.5801 8.03558C13.0012 7.96826 13.4254 7.90767 13.8525 7.85381C14.2857 7.79995 14.7129 7.75282 15.1431 7.7158C15.4067 7.69223 15.6824 7.67204 15.9641 7.65184C16.158 7.63838 16.3579 7.62828 16.5579 7.61818C16.4821 7.43304 16.4216 7.23781 16.3791 7.0392C16.3307 6.81031 16.3034 6.57131 16.3034 6.32558C16.3034 5.90482 16.3791 5.50425 16.5155 5.13734C16.6579 4.75697 16.8669 4.41362 17.1244 4.1275C17.3819 3.84138 17.6909 3.60911 18.0333 3.45427C18.3635 3.3028 18.724 3.21864 19.1027 3.21864C19.4814 3.21864 19.8419 3.3028 20.1721 3.45427C20.5144 3.61248 20.8235 3.84474 21.081 4.1275C21.3385 4.41362 21.5475 4.75697 21.6899 5.13734C21.8262 5.50425 21.902 5.90482 21.902 6.32558C21.902 6.57468 21.8747 6.81704 21.8232 7.05267C21.7778 7.26474 21.7111 7.47007 21.6263 7.6653C21.8565 7.68214 22.0807 7.69897 22.2988 7.71916C22.5927 7.74273 22.8987 7.77302 23.2137 7.80668C23.6833 7.85717 24.1499 7.9144 24.6194 7.98172C25.089 8.04568 25.5556 8.11973 26.0191 8.20052C27.0703 8.38229 28.0367 8.60446 28.9092 8.86701C29.7878 9.13294 30.5785 9.44262 31.2692 9.8028C31.9903 10.1764 32.6053 10.6073 33.1021 11.0988C33.605 11.5936 33.9867 12.149 34.2442 12.7717C34.2654 12.8189 34.2836 12.8693 34.2957 12.9266C34.3078 12.9804 34.3139 13.0343 34.3139 13.0915C34.3139 13.2834 34.2442 13.4551 34.1321 13.5796L34.123 13.5897C34.0109 13.7075 33.8595 13.7816 33.6929 13.7816H4.51252C4.5004 13.7816 4.49131 13.7816 4.48222 13.7782C4.44284 13.7748 4.40042 13.7681 4.36407 13.758C4.32166 13.7445 4.27924 13.7277 4.23683 13.7041C4.22774 13.7008 4.21865 13.694 4.20956 13.6873C4.06718 13.5964 3.9672 13.4517 3.92176 13.2867C3.87632 13.1218 3.88541 12.94 3.96114 12.7785C3.96417 12.7684 3.97023 12.7583 3.97629 12.7482C4.27318 12.1389 4.67611 11.5801 5.19113 11.0752C5.70312 10.577 6.3272 10.1259 7.06337 9.72874ZM25.2708 6.35924C25.392 6.49389 25.4526 6.6723 25.4526 6.84733C25.4526 7.02574 25.392 7.20078 25.2708 7.33542C25.1496 7.47007 24.989 7.53739 24.8315 7.53739C24.6709 7.53739 24.5134 7.47007 24.3922 7.33542C23.8499 6.73289 23.6833 6.20777 23.7106 5.70285C23.7378 5.20803 23.956 4.76033 24.1862 4.27898C24.4892 3.64614 24.8376 2.92579 24.2922 1.87219L24.2862 1.85873C24.2044 1.69715 24.1892 1.51201 24.2317 1.34707C24.2741 1.1754 24.374 1.02392 24.5225 0.929673C24.6709 0.835421 24.8406 0.815225 24.9921 0.86235C25.1466 0.909476 25.2829 1.02056 25.3677 1.1855C25.8131 2.0405 25.904 2.74402 25.8252 3.35329C25.7464 3.95919 25.5071 4.46075 25.2829 4.92527C25.0405 5.43692 24.8315 5.87116 25.2708 6.35924ZM29.9665 6.35924C30.0877 6.49389 30.1483 6.6723 30.1483 6.84733C30.1483 7.02574 30.0877 7.20078 29.9665 7.33542C29.8454 7.47007 29.6848 7.53739 29.5273 7.53739C29.3667 7.53739 29.2092 7.47007 29.088 7.33542C28.5457 6.73289 28.3791 6.20777 28.4063 5.70285C28.4336 5.20803 28.6517 4.76033 28.882 4.27898C29.0365 3.95583 29.2061 3.60911 29.2607 3.22201C29.3152 2.83827 29.2637 2.40067 28.988 1.87219C28.9032 1.70725 28.885 1.51875 28.9274 1.35044C28.9698 1.17877 29.0698 1.02729 29.2182 0.933039C29.3667 0.838787 29.5363 0.818591 29.6878 0.865717C29.8393 0.912842 29.9787 1.02392 30.0635 1.18887C30.5088 2.04386 30.5997 2.74738 30.5209 3.35665C30.4422 3.96256 30.2028 4.46411 29.9787 4.92864C29.8514 5.19456 29.7302 5.44366 29.706 5.67592C29.6818 5.89472 29.7454 6.11352 29.9665 6.35924ZM13.0164 7.33879C12.8952 7.47343 12.7346 7.54076 12.5771 7.54076C12.4165 7.54076 12.259 7.47343 12.1378 7.33879C12.0166 7.20414 11.956 7.02574 11.956 6.8507C11.956 6.6723 12.0166 6.49726 12.1378 6.36261C12.5801 5.87116 12.3711 5.43692 12.1257 4.932C11.9015 4.46411 11.6592 3.96592 11.5834 3.35665C11.5046 2.74402 11.5955 2.0405 12.0409 1.1855C12.1257 1.02056 12.2651 0.909476 12.4196 0.865717C12.5741 0.821957 12.7407 0.838787 12.8891 0.936405C13.0376 1.03066 13.1376 1.1855 13.1769 1.35717C13.2163 1.52884 13.2012 1.71398 13.1133 1.87892C12.568 2.92916 12.9164 3.65287 13.2194 4.28234C13.4526 4.7637 13.6677 5.21139 13.695 5.70621C13.7253 6.21113 13.5556 6.73625 13.0164 7.33879Z" fill="#64748B"/>
</svg>
