<svg width="41" height="34" viewBox="0 0 41 34" fill="none" xmlns="http://www.w3.org/2000/svg">
<path d="M40.6165 23.9538C40.042 22.9178 39.2018 22.0536 38.1824 21.4502C37.163 20.8467 36.0012 20.5258 34.8165 20.5204C35.1187 19.9384 35.2787 19.2929 35.2832 18.6371V11.7038C35.2832 11.4828 35.1954 11.2708 35.0391 11.1145C34.8829 10.9582 34.6709 10.8704 34.4499 10.8704H33.6165V9.20377H34.4499C34.6709 9.20377 34.8829 9.11598 35.0391 8.9597C35.1954 8.80342 35.2832 8.59145 35.2832 8.37044V5.03711C35.2832 4.81609 35.1954 4.60413 35.0391 4.44785C34.8829 4.29157 34.6709 4.20377 34.4499 4.20377H32.7832C32.2789 4.21873 31.7909 4.38592 31.3834 4.68339C30.9758 4.98086 30.6678 5.39467 30.4999 5.87044H26.1165C25.8955 5.87044 25.6836 5.95824 25.5273 6.11452C25.371 6.2708 25.2832 6.48276 25.2832 6.70377C25.2832 6.92479 25.371 7.13675 25.5273 7.29303C25.6836 7.44931 25.8955 7.53711 26.1165 7.53711H30.4999C30.6243 7.88661 30.825 8.20403 31.0873 8.46636C31.3496 8.72869 31.667 8.92934 32.0165 9.05377V10.8704H31.1832C30.9622 10.8704 30.7502 10.9582 30.594 11.1145C30.4377 11.2708 30.3499 11.4828 30.3499 11.7038V12.5371H27.8499C27.1868 12.5371 26.551 12.8005 26.0821 13.2693C25.6133 13.7382 25.3499 14.3741 25.3499 15.0371V18.3704C25.3531 18.9764 25.5762 19.5605 25.9778 20.0142C26.3794 20.4679 26.9322 20.7604 27.5332 20.8371L26.5832 21.7871C26.3493 22.0213 26.0712 22.2067 25.7651 22.3326C25.459 22.4585 25.1309 22.5223 24.7999 22.5204H21.4665C20.8441 22.5212 20.228 22.3961 19.6551 22.1526C19.0823 21.9092 18.5646 21.5524 18.1332 21.1038C17.7525 20.7246 17.4527 20.272 17.2522 19.7735C17.0516 19.275 16.9544 18.741 16.9665 18.2038C17.1271 17.0615 17.5617 15.975 18.2332 15.0371C18.8962 14.9774 19.5084 14.6568 19.9351 14.1458C20.3617 13.6347 20.5679 12.9751 20.5082 12.3121C20.4485 11.6491 20.1279 11.0369 19.6169 10.6102C19.1058 10.1836 18.4462 9.97743 17.7832 10.0371H15.2832V0.870443C15.2832 0.649429 15.1954 0.437467 15.0391 0.281187C14.8828 0.124907 14.6709 0.0371094 14.4499 0.0371094H4.44987C4.22886 0.0371094 4.0169 0.124907 3.86062 0.281187C3.70433 0.437467 3.61654 0.649429 3.61654 0.870443V10.8704C3.61654 11.0915 3.70433 11.3034 3.86062 11.4597C4.0169 11.616 4.22886 11.7038 4.44987 11.7038H7.16654C7.06888 11.9708 7.01813 12.2528 7.01654 12.5371C7.0182 12.951 7.12263 13.3581 7.32044 13.7217C7.51825 14.0853 7.80325 14.3942 8.14987 14.6204C6.55834 15.4504 5.10271 16.5182 3.8332 17.7871C1.5332 20.0371 0.283203 25.0371 0.283203 28.3704C0.283203 28.5914 0.371001 28.8034 0.527281 28.9597C0.683561 29.116 0.895523 29.2038 1.11654 29.2038H5.36654C5.57896 30.3527 6.18704 31.3909 7.08518 32.1382C7.98333 32.8855 9.11482 33.2947 10.2832 33.2947C11.4516 33.2947 12.5831 32.8855 13.4812 32.1382C14.3794 31.3909 14.9874 30.3527 15.1999 29.2038H26.3332C26.9771 29.2049 27.6118 29.0505 28.1832 28.7538L28.2999 28.6704C28.4393 29.2531 28.658 29.8139 28.9499 30.3371C29.0022 30.4336 29.0731 30.5188 29.1585 30.5878C29.2438 30.6568 29.342 30.7083 29.4473 30.7393C29.5526 30.7703 29.663 30.7801 29.7721 30.7683C29.8812 30.7565 29.987 30.7232 30.0832 30.6704L30.7332 30.3204C31.0017 30.9714 31.4047 31.5583 31.9158 32.0427C32.4268 32.5271 33.0344 32.8981 33.6988 33.1314C34.3632 33.3647 35.0694 33.455 35.7711 33.3965C36.4728 33.3379 37.1543 33.1318 37.7708 32.7917C38.3873 32.4515 38.9251 31.985 39.3488 31.4226C39.7725 30.8602 40.0727 30.2146 40.2296 29.5282C40.3866 28.8417 40.3968 28.1299 40.2595 27.4392C40.1223 26.7486 39.8407 26.0947 39.4332 25.5204L40.2999 25.0371C40.4789 24.9292 40.6109 24.7579 40.6695 24.5572C40.7282 24.3565 40.7093 24.1411 40.6165 23.9538ZM32.7832 5.87044H33.6165V7.53711H32.7832C32.5622 7.53711 32.3502 7.44931 32.194 7.29303C32.0377 7.13675 31.9499 6.92479 31.9499 6.70377C31.9499 6.48276 32.0377 6.2708 32.194 6.11452C32.3502 5.95824 32.5622 5.87044 32.7832 5.87044ZM26.9499 18.3704V15.0371C26.9499 14.8161 27.0377 14.6041 27.194 14.4478C27.3502 14.2916 27.5622 14.2038 27.7832 14.2038H30.2832V16.9871C30.2864 17.3432 30.2125 17.6957 30.0665 18.0204C29.9396 18.2939 29.7646 18.5422 29.5499 18.7538L29.1165 19.1871H27.7999C27.6904 19.1893 27.5816 19.1699 27.4797 19.1301C27.3777 19.0902 27.2846 19.0307 27.2057 18.9549C27.1268 18.879 27.0635 18.7884 27.0196 18.6881C26.9758 18.5878 26.952 18.4799 26.9499 18.3704ZM17.7832 11.7038C18.0042 11.7038 18.2162 11.7916 18.3725 11.9479C18.5287 12.1041 18.6165 12.3161 18.6165 12.5371C18.6165 12.7581 18.5287 12.9701 18.3725 13.1264C18.2162 13.2826 18.0042 13.3704 17.7832 13.3704H9.44987C9.22886 13.3704 9.0169 13.2826 8.86062 13.1264C8.70434 12.9701 8.61654 12.7581 8.61654 12.5371C8.61654 12.3161 8.70434 12.1041 8.86062 11.9479C9.0169 11.7916 9.22886 11.7038 9.44987 11.7038H17.7832ZM5.2832 1.70378H13.6165V3.37044H5.2832V1.70378ZM5.2832 10.0371V5.03711H13.6165V10.0371H5.2832ZM10.2832 31.7038C9.54607 31.7014 8.83053 31.4547 8.24851 31.0024C7.66648 30.55 7.25082 29.9175 7.06654 29.2038H13.4999C13.3156 29.9175 12.8999 30.55 12.3179 31.0024C11.7359 31.4547 11.0203 31.7014 10.2832 31.7038ZM6.0332 27.5371H5.2832C5.2832 26.211 5.80999 24.9393 6.74767 24.0016C7.68535 23.0639 8.95712 22.5371 10.2832 22.5371C11.6093 22.5371 12.8811 23.0639 13.8187 24.0016C14.7564 24.9393 15.2832 26.211 15.2832 27.5371H6.0332ZM27.2665 27.3538C26.9712 27.4779 26.6536 27.5403 26.3332 27.5371H16.9499C16.9499 25.769 16.2475 24.0733 14.9973 22.8231C13.747 21.5728 12.0513 20.8704 10.2832 20.8704C8.5151 20.8704 6.8194 21.5728 5.56916 22.8231C4.31892 24.0733 3.61654 25.769 3.61654 27.5371H1.94987C2.1332 24.5704 3.26654 20.7038 5.01654 18.9538C6.49987 17.4871 9.44987 15.0371 12.7832 15.0371H16.2499C15.7229 16.0011 15.3943 17.0608 15.2832 18.1538C15.2676 18.9171 15.4072 19.6756 15.6937 20.3833C15.9802 21.091 16.4076 21.733 16.9499 22.2704C17.5329 22.8768 18.2314 23.3603 19.0043 23.6923C19.7772 24.0243 20.6087 24.1983 21.4499 24.2038H24.7832C25.3319 24.2026 25.875 24.093 26.3812 23.8813C26.8875 23.6697 27.3469 23.3601 27.7332 22.9704L30.0665 20.6371L30.7332 19.9704C31.0873 19.6193 31.3753 19.2071 31.5832 18.7538C31.8262 18.2312 31.9568 17.6634 31.9665 17.0871V13.3704V12.5371H33.6332V18.6371C33.6389 19.2525 33.4128 19.8475 32.9999 20.3038L27.2665 27.3538ZM35.2832 31.7038C34.6069 31.7039 33.9466 31.4983 33.39 31.1142C32.8333 30.7302 32.4066 30.186 32.1665 29.5538L34.2832 28.3871L34.5999 28.8371C34.6633 28.9268 34.7439 29.0032 34.8369 29.0618C34.9298 29.1204 35.0335 29.1602 35.1418 29.1787C35.2501 29.1973 35.3611 29.1944 35.4683 29.17C35.5755 29.1458 35.6768 29.1006 35.7665 29.0371C35.8563 28.9736 35.9326 28.8931 35.9913 28.8001C36.0499 28.7071 36.0896 28.6035 36.1082 28.4952C36.1267 28.3869 36.1238 28.2759 36.0995 28.1687C36.0752 28.0615 36.03 27.9602 35.9665 27.8704L35.7499 27.5704L37.9499 26.3538C38.3261 26.8489 38.5564 27.4395 38.6145 28.0586C38.6727 28.6778 38.5565 29.3009 38.2791 29.8575C38.0017 30.414 37.5741 30.8819 37.0447 31.2082C36.5152 31.5345 35.9051 31.7061 35.2832 31.7038ZM37.7665 24.5704L30.0499 28.8371C29.8306 28.2061 29.7454 27.5362 29.7999 26.8704L33.4332 22.3871C34.3754 22.1203 35.3751 22.136 36.3084 22.4323C37.2417 22.7286 38.0675 23.2924 38.6832 24.0538L37.7665 24.5704Z" fill="#64748B"/>
</svg>
