<svg width="18" height="15" viewBox="0 0 18 15" fill="none" xmlns="http://www.w3.org/2000/svg">
<path d="M0.875 3.92554C0.460786 3.92554 0.125 4.26132 0.125 4.67554C0.125 5.08975 0.460786 5.42554 0.875 5.42554V3.92554ZM17.125 5.42554C17.5392 5.42554 17.875 5.08975 17.875 4.67554C17.875 4.26132 17.5392 3.92554 17.125 3.92554V5.42554ZM0.875 4.55054C0.460786 4.55054 0.125 4.88632 0.125 5.30054C0.125 5.71475 0.460786 6.05054 0.875 6.05054V4.55054ZM17.125 6.05054C17.5392 6.05054 17.875 5.71475 17.875 5.30054C17.875 4.88632 17.5392 4.55054 17.125 4.55054V6.05054ZM3.375 8.92554C2.96079 8.92554 2.625 9.26132 2.625 9.67554C2.625 10.0898 2.96079 10.4255 3.375 10.4255V8.92554ZM8.375 10.4255C8.78921 10.4255 9.125 10.0898 9.125 9.67554C9.125 9.26132 8.78921 8.92554 8.375 8.92554V10.4255ZM3.375 10.8005C2.96079 10.8005 2.625 11.1363 2.625 11.5505C2.625 11.9648 2.96079 12.3005 3.375 12.3005V10.8005ZM5.875 12.3005C6.28921 12.3005 6.625 11.9648 6.625 11.5505C6.625 11.1363 6.28921 10.8005 5.875 10.8005V12.3005ZM2.75 2.30054H15.25V0.800537H2.75V2.30054ZM16.375 3.42554V12.1755H17.875V3.42554H16.375ZM15.25 13.3005H2.75V14.8005H15.25V13.3005ZM1.625 12.1755V3.42554H0.125V12.1755H1.625ZM2.75 13.3005C2.12868 13.3005 1.625 12.7969 1.625 12.1755H0.125C0.125 13.6253 1.30025 14.8005 2.75 14.8005V13.3005ZM16.375 12.1755C16.375 12.7969 15.8713 13.3005 15.25 13.3005V14.8005C16.6997 14.8005 17.875 13.6253 17.875 12.1755H16.375ZM15.25 2.30054C15.8713 2.30054 16.375 2.80422 16.375 3.42554H17.875C17.875 1.97579 16.6997 0.800537 15.25 0.800537V2.30054ZM2.75 0.800537C1.30025 0.800537 0.125 1.97579 0.125 3.42554H1.625C1.625 2.80422 2.12868 2.30054 2.75 2.30054V0.800537ZM0.875 5.42554H17.125V3.92554H0.875V5.42554ZM0.875 6.05054H17.125V4.55054H0.875V6.05054ZM3.375 10.4255H8.375V8.92554H3.375V10.4255ZM3.375 12.3005H5.875V10.8005H3.375V12.3005Z" fill="#334155"/>
</svg>
