<svg width="24" height="24" viewBox="0 0 24 24" fill="none" xmlns="http://www.w3.org/2000/svg">
<path d="M19.606 8.50723L20.3519 8.42872L19.606 8.50723ZM20.8692 20.5072L20.1233 20.5857L20.8692 20.5072ZM3.13081 20.5072L3.87669 20.5857L3.13081 20.5072ZM4.39397 8.50723L3.64809 8.42872V8.42872L4.39397 8.50723ZM15 10.5C15 10.9142 15.3358 11.25 15.75 11.25C16.1642 11.25 16.5 10.9142 16.5 10.5H15ZM7.5 10.5C7.5 10.9142 7.83578 11.25 8.25 11.25C8.66421 11.25 9 10.9142 9 10.5H7.5ZM18.8601 8.58574L20.1233 20.5857L21.6151 20.4287L20.3519 8.42872L18.8601 8.58574ZM19.7504 21H4.24963V22.5H19.7504V21ZM3.87669 20.5857L5.13985 8.58574L3.64809 8.42872L2.38493 20.4287L3.87669 20.5857ZM5.51279 8.25H18.4872V6.75H5.51279V8.25ZM4.24963 21C4.02699 21 3.85339 20.8072 3.87669 20.5857L2.38493 20.4287C2.2684 21.5358 3.13644 22.5 4.24963 22.5V21ZM20.1233 20.5857C20.1466 20.8072 19.973 21 19.7504 21V22.5C20.8635 22.5 21.7316 21.5358 21.6151 20.4287L20.1233 20.5857ZM20.3519 8.42872C20.2514 7.47444 19.4467 6.75 18.4872 6.75V8.25C18.6791 8.25 18.8401 8.39489 18.8601 8.58574L20.3519 8.42872ZM5.13985 8.58574C5.15994 8.39489 5.32088 8.25 5.51279 8.25V6.75C4.55324 6.75 3.74854 7.47444 3.64809 8.42872L5.13985 8.58574ZM7.875 10.5C7.875 10.2929 8.04289 10.125 8.25 10.125V11.625C8.87132 11.625 9.375 11.1213 9.375 10.5H7.875ZM8.25 10.125C8.4571 10.125 8.625 10.2929 8.625 10.5H7.125C7.125 11.1213 7.62868 11.625 8.25 11.625V10.125ZM8.625 10.5C8.625 10.7071 8.4571 10.875 8.25 10.875V9.375C7.62868 9.375 7.125 9.87868 7.125 10.5H8.625ZM8.25 10.875C8.04289 10.875 7.875 10.7071 7.875 10.5H9.375C9.375 9.87868 8.87132 9.375 8.25 9.375V10.875ZM15.375 10.5C15.375 10.2929 15.5429 10.125 15.75 10.125V11.625C16.3713 11.625 16.875 11.1213 16.875 10.5H15.375ZM15.75 10.125C15.9571 10.125 16.125 10.2929 16.125 10.5H14.625C14.625 11.1213 15.1287 11.625 15.75 11.625V10.125ZM16.125 10.5C16.125 10.7071 15.9571 10.875 15.75 10.875V9.375C15.1287 9.375 14.625 9.87868 14.625 10.5H16.125ZM15.75 10.875C15.5429 10.875 15.375 10.7071 15.375 10.5H16.875C16.875 9.87868 16.3713 9.375 15.75 9.375V10.875ZM9 6C9 4.34315 10.3431 3 12 3V1.5C9.51471 1.5 7.5 3.51472 7.5 6H9ZM12 3C13.6569 3 15 4.34315 15 6H16.5C16.5 3.51472 14.4853 1.5 12 1.5V3ZM15 6V10.5H16.5V6H15ZM7.5 6V10.5H9V6H7.5Z" fill="#0F172A"/>
</svg>
