<svg width="33" height="33" viewBox="0 0 33 33" fill="none" xmlns="http://www.w3.org/2000/svg">
<rect x="0.481689" y="0.0106201" width="32" height="32" rx="4" fill="#64748B"/>
<path fill-rule="evenodd" clip-rule="evenodd" d="M19.4817 9.01062V10.2815C19.4817 10.6957 19.8175 11.0315 20.2317 11.0315C20.6459 11.0315 20.9817 10.6957 20.9817 10.2815V9.01062H23.2317C24.4743 9.01062 25.4817 10.018 25.4817 11.2606V13.8886C25.4817 14.2065 25.2813 14.4899 24.9816 14.5958C24.398 14.8021 23.9817 15.3587 23.9817 16.0106C23.9817 16.6626 24.398 17.2192 24.9816 17.4255C25.2813 17.5314 25.4817 17.8147 25.4817 18.1326V20.7606C25.4817 22.0033 24.4743 23.0106 23.2317 23.0106H20.9817V21.7398C20.9817 21.3256 20.6459 20.9898 20.2317 20.9898C19.8175 20.9898 19.4817 21.3256 19.4817 21.7398V23.0106H9.73169C8.48905 23.0106 7.48169 22.0033 7.48169 20.7606V18.1326C7.48169 17.8147 7.68206 17.5314 7.98175 17.4255C8.56536 17.2192 8.98169 16.6626 8.98169 16.0106C8.98169 15.3587 8.56536 14.8021 7.98175 14.5958C7.68206 14.4899 7.48169 14.2065 7.48169 13.8886V11.2606C7.48169 10.018 8.48905 9.01062 9.73169 9.01062H19.4817ZM20.9817 13.4065C20.9817 12.9922 20.6459 12.6565 20.2317 12.6565C19.8175 12.6565 19.4817 12.9922 19.4817 13.4065V14.4481C19.4817 14.8623 19.8175 15.1981 20.2317 15.1981C20.6459 15.1981 20.9817 14.8623 20.9817 14.4481V13.4065ZM20.9817 17.5731C20.9817 17.1589 20.6459 16.8231 20.2317 16.8231C19.8175 16.8231 19.4817 17.1589 19.4817 17.5731V18.6148C19.4817 19.029 19.8175 19.3648 20.2317 19.3648C20.6459 19.3648 20.9817 19.029 20.9817 18.6148V17.5731ZM12.4817 16.7606C12.4817 16.3464 12.8175 16.0106 13.2317 16.0106H16.7317C17.1459 16.0106 17.4817 16.3464 17.4817 16.7606C17.4817 17.1748 17.1459 17.5106 16.7317 17.5106H13.2317C12.8175 17.5106 12.4817 17.1748 12.4817 16.7606ZM12.4817 19.2606C12.4817 18.8464 12.8175 18.5106 13.2317 18.5106H14.7317C15.1459 18.5106 15.4817 18.8464 15.4817 19.2606C15.4817 19.6748 15.1459 20.0106 14.7317 20.0106H13.2317C12.8175 20.0106 12.4817 19.6748 12.4817 19.2606Z" fill="#F8FAFC"/>
</svg>
